<svg width="80" height="80" viewBox="0 0 80 80" fill="none" xmlns="http://www.w3.org/2000/svg">
    <path fill-rule="evenodd" clip-rule="evenodd" d="M40 0C62.0989 0 80 17.9011 80 40C80 62.0989 62.0989 80 40 80C17.9011 80 0 62.0989 0 40C0 17.9011 17.9011 0 40 0Z" fill="white"/>
    <path fill-rule="evenodd" clip-rule="evenodd" d="M76.0879 49.5861V46.0947H63.4341L70.6389 40.7668L63.313 35.3177H76.0879V31.8666H57.8841V35.1361L65.3917 40.7466L57.8841 46.1552V49.5659H76.0879V49.5861ZM71.5874 15.4388C73.424 17.8001 75.0183 20.3833 76.2898 23.128C76.0274 26.4176 74.5743 28.5165 72.5965 30.0705L70.1545 27.0029C72.0516 25.8122 73.0203 24.1774 73.0203 22.018C73.0203 20.0402 72.0718 19.0311 70.76 19.0311C69.0647 19.0311 68.7216 20.7869 68.1364 23.2895C67.5713 26.014 66.6833 29.0614 62.9901 29.0614C60.0032 29.0614 57.6016 26.3974 57.6016 22.6033C57.6016 19.3944 58.7317 17.3561 60.7701 15.5195L63.0102 18.3651C61.6177 19.3137 60.7499 20.5448 60.7499 22.6235C60.7499 24.6013 61.7186 25.4489 62.9295 25.4489C64.4028 25.4489 64.6853 23.6325 65.1899 21.352C65.7953 18.567 66.6833 15.3379 70.6187 15.3379C70.9416 15.3581 71.2645 15.3783 71.5874 15.4388ZM76.0879 57.3157V52.2299H72.6571V60.6457H57.8639V64.1976H71.87C73.4845 62.0584 74.8972 59.7577 76.0879 57.3157Z" fill="#74B788"/>
    <path fill-rule="evenodd" clip-rule="evenodd" d="M51.0186 34.9136V19.3535C55.3374 19.3737 58.6472 22.8853 58.6472 27.1436C58.6472 31.3818 55.3778 34.8934 51.0186 34.9136Z" fill="#E0D127"/>
    <path fill-rule="evenodd" clip-rule="evenodd" d="M51.0186 60.646V45.0859C55.3374 45.1061 58.6472 48.6177 58.6472 52.876C58.6472 57.1142 55.3778 60.6258 51.0186 60.646Z" fill="#2889A3"/>
    <path d="M28.4385 38.7681C33.4839 38.7681 36.7331 35.5391 36.7331 31.6642C36.7331 26.76 32.7372 25.6501 29.2659 24.9033C26.4405 24.2575 24.1802 23.9144 24.1802 22.0779C24.1802 20.5845 25.2296 19.3736 27.6716 19.3736C30.275 19.3736 31.7886 20.4634 32.9793 22.199L36.5515 19.4139C34.2508 16.871 31.7483 15.4785 27.7523 15.4785C23.05 15.4785 19.72 18.4452 19.72 22.1788C19.72 26.7601 23.494 27.8499 26.8845 28.5562C30.0126 29.2626 32.1923 29.7066 32.1923 31.8055C32.1923 33.4402 30.9208 34.6309 28.4788 34.6309C25.7745 34.6309 23.7765 33.42 22.2831 31.0587L18.4688 34.086C20.608 36.8509 23.5747 38.7681 28.4385 38.7681Z" fill="black"/>
    <path d="M32.1903 64.1978H36.5697V41.5742H32.1903V50.6761H23.048V41.5742H18.6484V64.1978H23.048V54.9546H32.1903V64.1978Z" fill="black"/>
    <path d="M51.0006 60.2025C46.9441 60.2025 43.8361 56.8927 43.8361 52.8968C43.8361 48.8604 46.9441 45.5506 51.0006 45.5506C55.0975 45.5506 58.2256 48.8604 58.2256 52.8968C58.2054 56.8927 55.1177 60.2025 51.0006 60.2025ZM51.0006 64.5012C57.4789 64.5012 62.6252 59.2943 62.6252 52.8766C62.6252 46.4588 57.4587 41.252 51.0006 41.252C44.5828 41.252 39.4365 46.4588 39.4365 52.8766C39.4365 59.2943 44.5828 64.5012 51.0006 64.5012Z" fill="black"/>
    <path d="M51.0006 33.9506C46.9441 33.9506 43.8361 30.6408 43.8361 26.6448C43.8361 22.6085 46.9441 19.2987 51.0006 19.2987C55.0975 19.2987 58.2256 22.6085 58.2256 26.6448C58.2054 30.6408 55.1177 33.9506 51.0006 33.9506ZM51.0006 38.2493C57.4789 38.2493 62.6252 33.0424 62.6252 26.6246C62.6252 20.2069 57.4587 15 51.0006 15C44.5828 15 39.4365 20.2069 39.4365 26.6246C39.4365 33.0424 44.5828 38.2493 51.0006 38.2493Z" fill="black"/>
</svg>
